<?xml version="1.0" encoding="UTF-8" standalone="no"?><!DOCTYPE svg PUBLIC "-//W3C//DTD SVG 1.1//EN" "http://www.w3.org/Graphics/SVG/1.1/DTD/svg11.dtd"><svg width="100%" height="100%" viewBox="0 0 274 225" version="1.1" xmlns="http://www.w3.org/2000/svg" xmlns:xlink="http://www.w3.org/1999/xlink" xml:space="preserve" xmlns:serif="http://www.serif.com/" style="fill-rule:evenodd;clip-rule:evenodd;stroke-linejoin:round;stroke-miterlimit:2;"><rect id="rect34" x="0" y="-0" width="273.612" height="224.202" style="fill:url(#_Linear1);"/><g id="layer1"><path id="path9" d="M-0.383,225.948l0,-226.787l284.869,0l0,226.787l-284.869,0Zm161.503,-18.758c39.854,-10.016 69.902,-43.735 75.292,-84.49c2.163,-16.355 -1.303,-37.169 -8.726,-52.411c-14.845,-30.48 -43.138,-51.77 -75.585,-56.876c-12.301,-1.936 -32.565,-0.781 -43.866,2.5c-16.858,4.894 -28.619,11.638 -41.951,24.058c-9.649,8.988 -15.556,16.763 -21.387,28.145c-24.627,48.078 -3.519,108.178 46.342,131.949c10.241,4.882 20.101,8.055 29.566,9.515c10.25,1.581 28.92,0.474 40.316,-2.39Zm-45.252,-4.69c-8.916,-1.855 -22.572,-6.654 -23.614,-8.298c-0.652,-1.029 -1.839,-59.847 -1.193,-59.141c0.241,0.264 8.546,15.994 18.455,34.957c10.268,19.65 17.423,34.447 16.636,34.406c-0.759,-0.04 -5.387,-0.905 -10.283,-1.924Zm-5.483,-43.464c-12.816,-25.003 -23.871,-45.459 -24.567,-45.459c-0.696,0 -1.643,0.637 -2.103,1.416c-1.434,2.425 -22.648,27.196 -22.998,26.854c-0.182,-0.178 3.482,-11.949 8.143,-26.157c7.447,-22.7 8.289,-26.016 6.939,-27.332c-1.349,-1.316 -2.093,-1.131 -6.131,1.523c-2.527,1.662 -10.136,6.516 -16.908,10.787l-12.313,7.765l0.674,-5.856c0.827,-7.187 3.643,-18.241 6.595,-25.889l2.212,-5.731l8.096,-2.272c4.453,-1.249 8.887,-2.483 9.853,-2.742c2.205,-0.59 6.583,-7.531 4.75,-7.531c-0.702,0 -4.573,0.919 -8.602,2.043c-4.028,1.124 -7.702,2.043 -8.164,2.043c-0.749,0 2.786,-5.319 7.074,-10.643c1.549,-1.923 1.846,-1.925 15.996,-0.108c7.93,1.018 18.173,2.894 22.763,4.169l8.345,2.318l3.003,-2.086c2.469,-1.715 2.755,-2.311 1.605,-3.351c-0.769,-0.696 -10.944,-2.816 -22.61,-4.711c-11.997,-1.949 -21.062,-3.884 -20.867,-4.454c0.63,-1.842 14.505,-11.565 21.318,-14.938l6.714,-3.324l4.405,4.755c2.423,2.615 10.287,11.199 17.477,19.075c7.19,7.876 13.654,14.32 14.364,14.32c0.71,0 9.132,-8.505 18.716,-18.899c9.583,-10.394 17.741,-18.899 18.128,-18.899c1.513,0 17.443,9.364 22.843,13.428c3.914,2.945 5.271,4.514 4.325,4.998c-0.758,0.388 -10.569,2.2 -21.801,4.025c-11.232,1.826 -20.877,3.733 -21.432,4.239c-0.633,0.576 -0.009,1.896 1.672,3.535l2.682,2.616l6.706,-2.155c3.688,-1.185 13.304,-3.072 21.368,-4.191c8.064,-1.12 15.293,-2.254 16.063,-2.52c0.771,-0.266 2.314,0.551 3.429,1.817c3.877,4.399 8.357,10.984 7.472,10.984c-0.489,0 -4.759,-1.097 -9.488,-2.438c-4.729,-1.341 -8.78,-2.146 -9.004,-1.788c-0.223,0.358 0.843,2.099 2.368,3.87c2.2,2.553 4.586,3.702 11.537,5.556c4.82,1.286 9.343,2.902 10.051,3.593c3.152,3.075 11.347,34.148 9.485,35.965c-0.217,0.211 -7.777,-4.277 -16.801,-9.974c-13.123,-8.285 -16.702,-10.119 -17.88,-9.165c-0.81,0.656 -1.473,1.714 -1.473,2.352c0,0.638 3.769,12.382 8.375,26.098c4.606,13.717 8.253,25.058 8.104,25.203c-0.149,0.145 -4.832,-5.114 -10.408,-11.687c-10.374,-12.23 -15.172,-17.186 -15.901,-16.426c-0.227,0.236 -10.834,20.772 -23.571,45.634c-18.9,36.892 -23.542,45.204 -25.244,45.204c-1.702,0 -6.37,-8.359 -25.386,-45.459l0,0Zm35.213,8.089c7.991,-4.146 9.02,-5.002 9.02,-7.5c0,-2.553 -0.839,-3.184 -8.871,-6.675c-9.976,-4.336 -9.999,-4.335 -21.811,0.916c-7.391,3.285 -7.959,3.754 -7.166,5.902c0.8,2.166 15.747,11.768 18.616,11.959c0.655,0.044 5.25,-2.027 10.211,-4.601Zm-20.758,-19.811c8.889,-4.006 9.001,-4.102 8.313,-7.157c-0.43,-1.908 -3.078,-5.312 -6.897,-8.865c-3.41,-3.172 -6.199,-6.157 -6.199,-6.634c0,-0.476 7.069,-0.866 15.71,-0.866c8.64,0 15.71,0.39 15.71,0.866c0,0.476 -2.853,3.52 -6.339,6.764c-5.656,5.263 -6.305,6.278 -6.022,9.422c0.301,3.339 0.749,3.709 8.51,7.041c4.506,1.934 8.526,3.316 8.933,3.071c0.407,-0.245 2.114,-3.249 3.792,-6.676l3.053,-6.23l-3.505,-10.961c-5.031,-15.733 -9.469,-31.016 -9.469,-32.604c0,-0.752 2.67,-2.519 5.934,-3.927l5.934,-2.56l2.444,2.24c3.087,2.829 3.063,3.115 -0.436,5.216c-1.584,0.951 -3.955,2.557 -5.268,3.568l-2.388,1.839l4.26,12.997c2.343,7.148 4.455,12.997 4.694,12.997c0.679,0 17.293,-28.928 17.291,-30.107c-0.002,-0.958 -5.058,-7.35 -20.87,-26.385c-3.127,-3.765 -6.183,-6.845 -6.791,-6.845c-0.607,0 -5.148,1.874 -10.09,4.165l-8.986,4.165l-9.243,-4.165c-5.084,-2.291 -9.858,-4.165 -10.609,-4.165c-1.293,0 -13.148,13.567 -23.724,27.151l-4.834,6.209l8.592,14.222c4.725,7.822 9.011,14.222 9.523,14.222c0.512,0 2.811,-5.5 5.108,-12.221l4.176,-12.221l-2.949,-2.08c-1.622,-1.144 -4.038,-3 -5.37,-4.124l-2.421,-2.043l2.083,-2.431c2.056,-2.401 2.14,-2.41 6.608,-0.745c8.575,3.194 8.637,3.31 6.511,11.973c-1.019,4.152 -4.022,14.11 -6.674,22.129l-4.822,14.58l3.345,6.617c1.84,3.64 3.577,6.617 3.86,6.617c0.283,0 4.569,-1.827 9.525,-4.06Zm-29.921,-71.021c5.186,-6.178 9.428,-11.495 9.428,-11.814c0,-1.112 -13.116,-5.066 -16.757,-5.051c-4.209,0.017 -9.795,2.991 -11.52,6.135c-1.717,3.129 -1.541,9.387 0.364,12.981c2.224,4.196 7.009,9.651 8.141,9.281c0.503,-0.164 5.157,-5.353 10.343,-11.532Zm95.516,8.935c3.972,-4.141 6.076,-8.815 6.076,-13.5c0,-3.303 -0.733,-4.932 -3.585,-7.968c-3.354,-3.57 -3.978,-3.816 -9.688,-3.816c-6.312,0 -16.052,2.92 -16.052,4.812c0,0.587 3.417,4.953 7.593,9.701c4.176,4.748 8.51,9.746 9.63,11.107c2.55,3.097 2.744,3.086 6.026,-0.336Zm-28.279,84.31l18.121,-34.957l0.278,28.959c0.188,19.594 -0.087,29.388 -0.851,30.287c-2.22,2.609 -28.798,10.669 -35.183,10.669c-0.267,0 7.668,-15.731 17.635,-34.957l-0,0Zm-82.945,16.962c-7.892,-6.008 -14.619,-12.808 -20.018,-20.235c-5.065,-6.967 -5.112,-7.104 -3.194,-9.194c1.071,-1.167 6.451,-7.408 11.956,-13.869c5.504,-6.461 11.397,-13.336 13.095,-15.276l3.087,-3.528l0.659,16.298c0.907,22.441 0.859,49.509 -0.088,49.446c-0.431,-0.029 -2.905,-1.667 -5.497,-3.641l-0,0Zm107.873,-30.021l0,-32.693l3.519,3.834c1.935,2.109 8.755,9.992 15.155,17.519c13.373,15.727 13.106,13.374 2.915,25.693c-5.154,6.23 -18.823,18.34 -20.702,18.34c-0.488,0 -0.887,-14.712 -0.887,-32.693Zm-139.177,-9.157c-2.45,-5.555 -5.845,-19.067 -6.844,-27.239l-0.641,-5.241l13.644,-8.294c7.504,-4.562 13.818,-8.294 14.031,-8.294c0.213,0 -3.326,11.265 -7.864,25.032c-4.538,13.768 -8.251,25.693 -8.251,26.5c0,3.434 -2.009,2.219 -4.074,-2.464Zm169.482,-5.397c-12.032,-37.359 -14.174,-44.559 -13.061,-43.899c0.685,0.406 7.001,4.371 14.035,8.81l12.79,8.071l-0.666,4.698c-1.433,10.104 -3.887,20.178 -6.416,26.342c-1.456,3.547 -2.796,6.449 -2.978,6.449c-0.182,0 -1.848,-4.712 -3.703,-10.471Zm-97.139,-102.667c-16.892,-18.386 -16.814,-16.321 -0.717,-19.19c14.219,-2.535 13.091,-3.461 13.091,10.762l0,12.259l6.284,0l0,-24.799l5.957,0.683c8.562,0.982 20.39,3.737 20.019,4.663c-0.567,1.415 -28.407,31.711 -29.14,31.711c-0.392,0 -7.364,-7.24 -15.494,-16.09Z" style="fill-rule:nonzero;"/></g><defs><linearGradient id="_Linear1" x1="0" y1="0" x2="1" y2="0" gradientUnits="userSpaceOnUse" gradientTransform="matrix(-0.918116,-54.168658,54.168658,-0.918116,139.553152,57.841109)"><stop offset="0" style="stop-color:#e2a93f;stop-opacity:1"/><stop offset="1" style="stop-color:#e2a93f;stop-opacity:0"/></linearGradient></defs></svg>